<?xml version="1.0" encoding="iso-8859-1"?>
<!-- Generator: Adobe Illustrator 16.0.0, SVG Export Plug-In . SVG Version: 6.00 Build 0)  -->
<!DOCTYPE svg PUBLIC "-//W3C//DTD SVG 1.1//EN" "http://www.w3.org/Graphics/SVG/1.1/DTD/svg11.dtd">
<svg version="1.1" id="Capa_1" xmlns="http://www.w3.org/2000/svg" xmlns:xlink="http://www.w3.org/1999/xlink" x="0px" y="0px"
	 width="512px" height="512px" viewBox="0 0 512 512" style="enable-background:new 0 0 512 512;" xml:space="preserve">
<g>
	<path d="M256,512c141.385,0,256-114.615,256-256S397.385,0,256,0C114.615,0,0,114.615,0,256S114.615,512,256,512z M256,48
		c114.875,0,208,93.125,208,208s-93.125,208-208,208S48,370.875,48,256S141.125,48,256,48z M128,160c0-17.673,14.327-32,32-32
		s32,14.327,32,32s-14.327,32-32,32S128,177.673,128,160z M320,160c0-17.673,14.326-32,32-32s32,14.327,32,32s-14.326,32-32,32
		S320,177.673,320,160z M159.951,390.37l-41.164-24.698C146.768,319.137,197.745,288,256,288c58.254,0,109.23,31.137,137.213,77.672
		l-41.164,24.698C332.463,357.796,296.777,336,256,336C215.221,336,179.538,357.796,159.951,390.37z"/>
</g>
<g>
</g>
<g>
</g>
<g>
</g>
<g>
</g>
<g>
</g>
<g>
</g>
<g>
</g>
<g>
</g>
<g>
</g>
<g>
</g>
<g>
</g>
<g>
</g>
<g>
</g>
<g>
</g>
<g>
</g>
</svg>
